<svg id="SvgjsSvg1001" width="288" height="288" xmlns="http://www.w3.org/2000/svg" version="1.1" xmlns:xlink="http://www.w3.org/1999/xlink" xmlns:svgjs="http://svgjs.com/svgjs"><defs id="SvgjsDefs1002"></defs><g id="SvgjsG1008" transform="matrix(1,0,0,1,0,0)"><svg xmlns="http://www.w3.org/2000/svg" width="288" height="288" viewBox="0 0 400 308.099"><path fill-rule="evenodd" d="M77.941 0.719 C 71.564 1.414,67.329 4.226,64.588 9.587 C 64.031 10.678,60.799 14.775,57.407 18.692 C 47.309 30.353,43.363 35.168,42.310 37.115 C 41.763 38.128,38.712 42.018,35.530 45.759 C 28.976 53.466,21.933 62.040,18.512 66.474 C 17.240 68.124,13.893 72.161,11.074 75.443 C 8.256 78.726,5.950 81.661,5.950 81.966 C 5.950 82.270,4.915 83.759,3.649 85.274 C -0.191 89.871,-0.944 96.049,1.608 102.032 C 2.178 103.369,3.053 105.430,3.553 106.612 C 4.053 107.793,12.606 117.269,22.561 127.669 C 32.516 138.069,46.909 153.223,54.545 161.344 C 62.182 169.466,73.190 181.043,79.008 187.072 C 84.826 193.100,92.264 201.002,95.537 204.632 C 98.810 208.262,106.424 216.291,112.457 222.475 C 118.490 228.659,125.630 236.166,128.324 239.156 C 135.061 246.633,163.770 276.730,189.752 303.556 C 195.717 309.714,204.314 309.705,210.248 303.533 C 211.884 301.832,216.645 296.749,220.826 292.238 C 225.008 287.727,232.446 279.840,237.355 274.711 C 242.264 269.582,252.678 258.587,260.496 250.277 C 268.314 241.967,279.917 229.780,286.281 223.195 C 292.645 216.610,300.529 208.254,303.802 204.627 C 307.074 201.000,314.512 193.100,320.331 187.072 C 326.149 181.043,337.157 169.460,344.793 161.332 C 352.430 153.203,364.722 140.302,372.110 132.664 C 401.919 101.842,404.760 96.359,396.377 85.832 C 395.125 84.261,393.123 81.708,391.927 80.159 C 390.731 78.610,387.603 74.742,384.976 71.564 C 377.734 62.801,376.627 61.417,375.377 59.562 C 373.381 56.597,370.108 52.525,363.967 45.367 C 360.694 41.552,357.124 37.211,356.033 35.720 C 354.942 34.230,351.896 30.418,349.264 27.249 C 346.631 24.080,342.317 18.883,339.677 15.699 C 337.036 12.515,333.835 8.677,332.562 7.169 C 331.122 5.462,328.626 3.658,325.950 2.388 L 321.653 0.349 201.983 0.296 C 136.165 0.267,80.346 0.458,77.941 0.719 M135.868 29.731 C 138.185 29.785,138.349 29.885,137.190 30.538 C 136.463 30.948,134.909 32.055,133.736 32.997 C 132.564 33.940,130.247 35.752,128.588 37.025 C 123.274 41.101,114.380 49.003,114.380 49.648 C 114.380 49.992,112.132 52.800,109.385 55.888 C 106.637 58.976,103.976 62.490,103.472 63.697 C 102.968 64.903,102.124 66.248,101.597 66.686 C 101.070 67.124,100.260 68.439,99.799 69.609 C 99.337 70.778,98.404 72.359,97.724 73.122 C 97.045 73.884,95.903 76.041,95.187 77.915 C 94.470 79.789,93.255 82.884,92.487 84.793 C 89.775 91.530,87.822 98.439,86.646 105.455 C 86.220 108.000,85.583 111.421,85.231 113.058 C 84.879 114.694,84.710 121.388,84.855 127.934 C 85.093 138.710,85.448 141.979,87.291 150.392 C 87.608 151.835,87.807 153.065,87.735 153.126 C 87.662 153.187,82.099 147.439,75.372 140.353 C 68.645 133.267,56.259 120.285,47.847 111.503 L 32.554 95.537 35.285 92.440 C 36.788 90.737,39.058 87.977,40.331 86.308 C 43.549 82.087,50.465 73.699,57.690 65.251 C 61.052 61.321,64.421 57.077,65.178 55.819 C 65.934 54.561,68.092 51.677,69.973 49.410 C 79.941 37.399,81.899 35.126,84.628 32.397 L 87.603 29.421 110.413 29.546 C 122.959 29.614,134.413 29.698,135.868 29.731 M310.083 29.753 C 312.978 29.833,313.188 29.989,317.894 35.579 C 324.962 43.973,331.291 51.770,333.554 54.870 C 334.645 56.364,338.316 60.771,341.712 64.661 C 345.108 68.552,348.367 72.479,348.955 73.388 C 349.542 74.298,350.928 76.145,352.036 77.493 C 353.143 78.841,355.091 81.302,356.364 82.961 C 357.636 84.621,360.519 88.129,362.770 90.758 L 366.863 95.537 363.413 99.174 C 361.515 101.174,354.913 108.027,348.741 114.403 C 342.570 120.780,331.421 132.437,323.967 140.309 C 311.570 153.400,308.637 156.002,310.769 152.020 C 312.918 148.003,314.281 120.397,312.724 112.397 C 312.406 110.760,311.795 107.339,311.367 104.793 C 310.408 99.085,308.463 91.983,306.660 87.603 C 304.776 83.025,303.072 78.737,302.136 76.220 C 301.701 75.051,300.928 73.747,300.417 73.323 C 299.906 72.899,298.896 71.327,298.172 69.830 C 295.563 64.439,293.153 60.826,289.091 56.221 C 286.818 53.645,284.959 51.266,284.959 50.935 C 284.959 49.807,262.287 30.420,260.947 30.403 C 260.362 30.396,260.357 30.271,260.929 29.907 C 261.540 29.518,297.521 29.405,310.083 29.753 M210.579 42.644 C 217.331 43.374,221.386 44.505,230.744 48.265 C 232.744 49.068,235.273 50.079,236.364 50.511 C 237.455 50.943,239.388 51.951,240.661 52.753 C 241.934 53.554,243.226 54.211,243.532 54.212 C 244.686 54.218,262.479 69.158,262.479 70.122 C 262.479 70.437,264.138 72.552,266.165 74.824 C 268.191 77.095,270.288 80.003,270.824 81.286 C 271.360 82.569,272.320 84.217,272.958 84.950 C 273.596 85.682,274.805 87.917,275.645 89.917 C 276.485 91.917,277.619 94.595,278.165 95.868 C 279.810 99.704,281.632 105.789,282.305 109.700 C 284.436 122.068,284.480 123.048,283.397 134.215 C 282.412 144.366,281.774 147.403,279.370 153.388 C 278.859 154.661,277.912 157.488,277.264 159.669 C 276.617 161.851,275.406 164.645,274.573 165.877 C 273.740 167.110,273.058 168.425,273.058 168.801 C 273.058 169.176,272.547 170.047,271.923 170.737 C 271.299 171.426,270.183 172.977,269.444 174.183 C 265.978 179.834,263.918 182.441,259.374 186.926 C 256.678 189.588,253.373 192.510,252.029 193.419 C 250.686 194.329,248.397 195.963,246.942 197.050 C 245.488 198.137,243.260 199.483,241.992 200.041 C 240.725 200.599,239.088 201.610,238.356 202.288 C 237.624 202.967,235.388 204.015,233.388 204.619 C 231.388 205.222,228.711 206.174,227.438 206.734 C 211.536 213.733,186.597 213.724,170.548 206.713 C 169.292 206.164,166.639 205.221,164.653 204.617 C 162.667 204.012,160.189 202.800,159.148 201.924 C 158.106 201.047,156.458 200.133,155.486 199.891 C 152.708 199.201,136.198 185.948,136.198 184.409 C 136.198 184.102,134.531 181.983,132.494 179.700 C 129.013 175.799,127.704 173.829,124.725 168.013 C 124.051 166.697,123.132 165.174,122.683 164.628 C 122.233 164.083,121.353 161.851,120.725 159.669 C 120.097 157.488,118.999 154.364,118.284 152.727 C 117.569 151.091,116.683 147.967,116.315 145.785 C 115.948 143.603,115.344 140.037,114.974 137.860 C 114.071 132.551,114.027 118.686,114.900 114.653 C 115.286 112.867,115.977 109.471,116.435 107.107 C 117.219 103.065,117.875 101.055,120.915 93.388 C 123.249 87.501,124.277 85.380,125.018 84.922 C 125.425 84.671,126.291 83.274,126.942 81.819 C 129.014 77.191,140.163 64.702,145.455 61.081 C 146.727 60.210,149.107 58.463,150.744 57.198 C 152.380 55.934,154.760 54.296,156.033 53.558 C 157.306 52.821,158.793 51.957,159.339 51.638 C 159.884 51.320,161.967 50.398,163.967 49.591 C 165.967 48.784,168.837 47.579,170.346 46.913 C 171.854 46.247,174.970 45.361,177.271 44.944 C 179.571 44.527,181.989 43.899,182.645 43.548 C 185.281 42.137,201.144 41.624,210.579 42.644 M190.744 45.953 C 187.319 47.165,182.771 51.970,181.915 55.280 C 181.021 58.737,181.021 126.387,181.915 129.844 C 183.226 134.915,188.137 138.669,197.129 141.473 C 199.689 142.272,231.901 142.186,235.040 141.372 C 240.385 139.987,245.282 133.246,245.282 127.273 C 245.282 116.548,238.715 112.395,221.992 112.542 C 216.269 112.592,211.400 112.447,211.173 112.220 C 210.946 111.993,210.773 99.667,210.789 84.829 C 210.822 54.218,210.782 53.897,206.377 49.497 C 201.977 45.103,196.594 43.882,190.744 45.953 M173.223 238.550 C 188.150 242.642,215.101 242.245,228.378 237.738 C 230.068 237.164,231.772 236.694,232.165 236.694 C 232.833 236.694,225.870 244.197,207.438 263.338 L 199.669 271.405 191.901 263.338 C 164.103 234.472,165.602 236.461,173.223 238.550 " fill="#9fa7b3" class="color000 svgShape"></path></svg></g></svg>